<?xml version="1.0" standalone="no"?><!DOCTYPE svg PUBLIC "-//W3C//DTD SVG 1.1//EN" "http://www.w3.org/Graphics/SVG/1.1/DTD/svg11.dtd"><svg t="1580814606185" class="icon" viewBox="0 0 1024 1024" version="1.1" xmlns="http://www.w3.org/2000/svg" p-id="1725" xmlns:xlink="http://www.w3.org/1999/xlink" width="200" height="200"><defs><style type="text/css"></style></defs><path d="M512 160c-159.616 0-160 64-160 64v128h192v32H224s-96-14.72-96 160 96 160 96 160h96v-52A140.256 140.256 0 0 1 460 512h104c59.52 0 108-16.512 108-76V224s-0.384-64-160-64z m-96 64c17.6 0 32 14.4 32 32s-14.4 32-32 32-32-14.4-32-32 14.4-32 32-32z m288 128v84C704 513.12 641.12 544 564 544h-104A108.16 108.16 0 0 0 352 652V832s2.016 64 160 64c158.016 0 160-64 160-64v-128h-192v-32h320s96 16.128 96-160-96-160-96-160z m-96 416c17.6 0 32 14.4 32 32s-14.4 32-32 32-32-14.4-32-32 14.4-32 32-32z" p-id="1726"></path></svg>